HIERARCHY
ROOT Hips
{
	OFFSET 0.000000 105.849998 0.000017
	CHANNELS 6 Xposition Yposition Zposition Yrotation Zrotation Xrotation
	JOINT RightUpLeg
	{
		OFFSET -11.500000 -1.849998 -0.000000
		CHANNELS 3 Yrotation Zrotation Xrotation
		JOINT RightLeg
		{
			OFFSET 0.000000 -48.000000 -0.000008
			CHANNELS 3 Yrotation Zrotation Xrotation
			JOINT RightFoot
			{
				OFFSET 0.000000 -48.000000 -0.000008
				CHANNELS 3 Yrotation Zrotation Xrotation
				End Site
				{
					OFFSET 0.000000 -8.000003 19.599998
				}
			}
		}
	}
	JOINT LeftUpLeg
	{
		OFFSET 11.500000 -1.849998 -0.000000
		CHANNELS 3 Yrotation Zrotation Xrotation
		JOINT LeftLeg
		{
			OFFSET 0.000000 -48.000000 -0.000008
			CHANNELS 3 Yrotation Zrotation Xrotation
			JOINT LeftFoot
			{
				OFFSET 0.000000 -48.000000 -0.000008
				CHANNELS 3 Yrotation Zrotation Xrotation
				End Site
				{
					OFFSET 0.000000 -8.000003 19.599998
				}
			}
		}
	}
	JOINT Spine
	{
		OFFSET 0.000000 16.653999 0.000003
		CHANNELS 3 Yrotation Zrotation Xrotation
		JOINT Spine1
		{
			OFFSET 0.000000 11.311996 0.000002
			CHANNELS 3 Yrotation Zrotation Xrotation
			JOINT Spine2
			{
				OFFSET 0.000000 11.779999 0.000002
				CHANNELS 3 Yrotation Zrotation Xrotation
				JOINT Spine3
				{
					OFFSET 0.000000 11.311996 0.000002
					CHANNELS 3 Yrotation Zrotation Xrotation
					JOINT Neck
					{
						OFFSET 0.000000 12.091003 0.000002
						CHANNELS 3 Yrotation Zrotation Xrotation
						JOINT Head
						{
							OFFSET 0.000000 9.000000 0.000001
							CHANNELS 3 Yrotation Zrotation Xrotation
							End Site
							{
								OFFSET 0.000000 18.000000 0.000003
							}
						}
					}
					JOINT RightShoulder
					{
						OFFSET -3.500000 8.061005 0.000001
						CHANNELS 3 Yrotation Zrotation Xrotation
						JOINT RightArm
						{
							OFFSET -14.000000 0.000000 -0.000000
							CHANNELS 3 Yrotation Zrotation Xrotation
							JOINT RightForeArm
							{
								OFFSET -13.187994 -25.827011 0.206338
								CHANNELS 3 Yrotation Zrotation Xrotation
								JOINT RightHand
								{
									OFFSET -7.189089 -27.060608 0.199833
									CHANNELS 3 Yrotation Zrotation Xrotation
									JOINT RightHandThumb1
									{
										OFFSET -0.888699 -2.534554 3.407067
										CHANNELS 3 Yrotation Zrotation Xrotation
										JOINT RightHandThumb2
										{
											OFFSET -1.026501 -3.863869 0.028533
											CHANNELS 3 Yrotation Zrotation Xrotation
											JOINT RightHandThumb3
											{
												OFFSET -0.713264 -2.684799 0.019826
												CHANNELS 3 Yrotation Zrotation Xrotation
												End Site
												{
													OFFSET -0.611584 -2.302086 0.017000
												}
											}
										}
									}
									JOINT RightInHandIndex
									{
										OFFSET -1.429512 -3.225685 2.172575
										CHANNELS 3 Yrotation Zrotation Xrotation
										JOINT RightHandIndex1
										{
											OFFSET -1.357243 -5.491745 1.125458
											CHANNELS 3 Yrotation Zrotation Xrotation
											JOINT RightHandIndex2
											{
												OFFSET -1.009045 -3.798141 0.028048
												CHANNELS 3 Yrotation Zrotation Xrotation
												JOINT RightHandIndex3
												{
													OFFSET -0.572041 -2.153267 0.015901
													CHANNELS 3 Yrotation Zrotation Xrotation
													End Site
													{
														OFFSET -0.503231 -1.894241 0.013988
													}
												}
											}
										}
									}
									JOINT RightInHandMiddle
									{
										OFFSET -1.484951 -3.398720 0.847831
										CHANNELS 3 Yrotation Zrotation Xrotation
										JOINT RightHandMiddle1
										{
											OFFSET -1.354069 -5.450478 0.381144
											CHANNELS 3 Yrotation Zrotation Xrotation
											JOINT RightHandMiddle2
											{
												OFFSET -1.100967 -4.144135 0.030603
												CHANNELS 3 Yrotation Zrotation Xrotation
												JOINT RightHandMiddle3
												{
													OFFSET -0.690144 -2.597824 0.019184
													CHANNELS 3 Yrotation Zrotation Xrotation
													End Site
													{
														OFFSET -0.550488 -2.072067 0.015302
													}
												}
											}
										}
									}
									JOINT RightInHandRing
									{
										OFFSET -1.502769 -3.382462 -0.114287
										CHANNELS 3 Yrotation Zrotation Xrotation
										JOINT RightHandRing1
										{
											OFFSET -1.269424 -4.873001 -0.484059
											CHANNELS 3 Yrotation Zrotation Xrotation
											JOINT RightHandRing2
											{
												OFFSET -0.959488 -3.611633 0.026671
												CHANNELS 3 Yrotation Zrotation Xrotation
												JOINT RightHandRing3
												{
													OFFSET -0.665764 -2.506012 0.018506
													CHANNELS 3 Yrotation Zrotation Xrotation
													End Site
													{
														OFFSET -0.517612 -1.948372 0.014388
													}
												}
											}
										}
									}
									JOINT RightInHandPinky
									{
										OFFSET -1.375679 -3.195129 -1.280795
										CHANNELS 3 Yrotation Zrotation Xrotation
										JOINT RightHandPinky1
										{
											OFFSET -1.132607 -4.359695 -1.151867
											CHANNELS 3 Yrotation Zrotation Xrotation
											JOINT RightHandPinky2
											{
												OFFSET -0.768463 -2.892593 0.021361
												CHANNELS 3 Yrotation Zrotation Xrotation
												JOINT RightHandPinky3
												{
													OFFSET -0.485523 -1.827560 0.013496
													CHANNELS 3 Yrotation Zrotation Xrotation
													End Site
													{
														OFFSET -0.458561 -1.726074 0.012747
													}
												}
											}
										}
									}
								}
							}
						}
					}
					JOINT LeftShoulder
					{
						OFFSET 3.500000 8.061005 0.000001
						CHANNELS 3 Yrotation Zrotation Xrotation
						JOINT LeftArm
						{
							OFFSET 14.000000 0.000000 -0.000000
							CHANNELS 3 Yrotation Zrotation Xrotation
							JOINT LeftForeArm
							{
								OFFSET 13.187994 -25.827011 0.206338
								CHANNELS 3 Yrotation Zrotation Xrotation
								JOINT LeftHand
								{
									OFFSET 7.189089 -27.060608 0.199833
									CHANNELS 3 Yrotation Zrotation Xrotation
									JOINT LeftHandThumb1
									{
										OFFSET 0.888699 -2.534554 3.407067
										CHANNELS 3 Yrotation Zrotation Xrotation
										JOINT LeftHandThumb2
										{
											OFFSET 1.026501 -3.863869 0.028533
											CHANNELS 3 Yrotation Zrotation Xrotation
											JOINT LeftHandThumb3
											{
												OFFSET 0.713264 -2.684799 0.019826
												CHANNELS 3 Yrotation Zrotation Xrotation
												End Site
												{
													OFFSET 0.611584 -2.302086 0.017000
												}
											}
										}
									}
									JOINT LeftInHandIndex
									{
										OFFSET 1.429512 -3.225685 2.172575
										CHANNELS 3 Yrotation Zrotation Xrotation
										JOINT LeftHandIndex1
										{
											OFFSET 1.357243 -5.491745 1.125458
											CHANNELS 3 Yrotation Zrotation Xrotation
											JOINT LeftHandIndex2
											{
												OFFSET 1.009045 -3.798141 0.028048
												CHANNELS 3 Yrotation Zrotation Xrotation
												JOINT LeftHandIndex3
												{
													OFFSET 0.572041 -2.153267 0.015901
													CHANNELS 3 Yrotation Zrotation Xrotation
													End Site
													{
														OFFSET 0.503231 -1.894241 0.013988
													}
												}
											}
										}
									}
									JOINT LeftInHandMiddle
									{
										OFFSET 1.484951 -3.398720 0.847831
										CHANNELS 3 Yrotation Zrotation Xrotation
										JOINT LeftHandMiddle1
										{
											OFFSET 1.354069 -5.450478 0.381144
											CHANNELS 3 Yrotation Zrotation Xrotation
											JOINT LeftHandMiddle2
											{
												OFFSET 1.100967 -4.144135 0.030603
												CHANNELS 3 Yrotation Zrotation Xrotation
												JOINT LeftHandMiddle3
												{
													OFFSET 0.690144 -2.597824 0.019184
													CHANNELS 3 Yrotation Zrotation Xrotation
													End Site
													{
														OFFSET 0.550488 -2.072067 0.015302
													}
												}
											}
										}
									}
									JOINT LeftInHandRing
									{
										OFFSET 1.502769 -3.382462 -0.114287
										CHANNELS 3 Yrotation Zrotation Xrotation
										JOINT LeftHandRing1
										{
											OFFSET 1.269424 -4.873001 -0.484059
											CHANNELS 3 Yrotation Zrotation Xrotation
											JOINT LeftHandRing2
											{
												OFFSET 0.959488 -3.611633 0.026671
												CHANNELS 3 Yrotation Zrotation Xrotation
												JOINT LeftHandRing3
												{
													OFFSET 0.665764 -2.506012 0.018506
													CHANNELS 3 Yrotation Zrotation Xrotation
													End Site
													{
														OFFSET 0.517612 -1.948372 0.014388
													}
												}
											}
										}
									}
									JOINT LeftInHandPinky
									{
										OFFSET 1.375679 -3.195129 -1.280795
										CHANNELS 3 Yrotation Zrotation Xrotation
										JOINT LeftHandPinky1
										{
											OFFSET 1.132607 -4.359695 -1.151867
											CHANNELS 3 Yrotation Zrotation Xrotation
											JOINT LeftHandPinky2
											{
												OFFSET 0.768463 -2.892593 0.021361
												CHANNELS 3 Yrotation Zrotation Xrotation
												JOINT LeftHandPinky3
												{
													OFFSET 0.485523 -1.827560 0.013496
													CHANNELS 3 Yrotation Zrotation Xrotation
													End Site
													{
														OFFSET 0.458561 -1.726074 0.012747
													}
												}
											}
										}
									}
								}
							}
						}
					}
				}
			}
		}
	}
}
MOTION
Frames: 6
Frame Time: 0.041667
0.000000 -0.000000 0.840569 0.000001 -6.547563 2.667251 -2.494461 3.532576 11.954077 0.369670 -0.574915 11.025107 3.488477 2.320098 -2.956098 5.118659 8.575313 -26.131660 -0.306578 0.492800 9.350264 -3.783087 -3.834726 -17.040267 0.238841 5.113269 -0.010651 -0.000000 -0.000000 -0.000000 -0.000000 -0.000000 -0.000000 -0.000000 -0.000000 -0.000000 0.049855 1.070056 -0.000431 -0.000000 -0.000006 -3.131942 0.321334 6.863031 -5.722269 -17.592464 -7.481650 -8.703305 -3.048233 -9.635626 -23.115662 -8.616060 0.836123 -9.742983 -0.000001 0.000000 0.000002 -0.000005 -0.000001 0.000000 -0.000002 -0.000001 -0.000001 0.000003 0.000006 0.000005 -0.000003 -0.000001 -0.000004 0.000002 -0.000002 -0.000002 0.000001 0.000001 0.000001 0.000001 0.000004 -0.000001 0.000001 -0.000001 -0.000004 0.000002 -0.000002 0.000003 -0.000003 0.000003 0.000001 0.000001 0.000004 0.000003 0.000001 -0.000003 0.000000 0.000001 0.000002 0.000001 0.000001 -0.000002 0.000002 0.000003 0.000006 -0.000000 -0.000002 -0.000002 -0.000001 -0.000002 0.000001 -0.000002 0.000001 0.000002 -0.000001 0.321235 6.863039 5.611960 17.169639 -6.827491 5.760605 0.987179 -12.417599 9.048859 0.000099 0.000007 0.000079 0.000004 0.000004 -0.000002 0.000001 -0.000002 -0.000002 0.000001 0.000001 0.000001 -0.000002 -0.000003 0.000004 0.000000 0.000000 -0.000000 0.000000 0.000001 0.000001 -0.000003 0.000002 -0.000001 -0.000001 -0.000002 0.000001 0.000002 0.000000 0.000001 -0.000001 0.000000 -0.000001 0.000001 0.000000 -0.000001 0.000001 0.000004 0.000002 0.000003 0.000003 -0.000001 0.000001 -0.000001 -0.000000 0.000000 -0.000000 0.000001 0.000000 0.000001 -0.000002 0.000004 0.000002 0.000000 -0.000002 0.000001 0.000000 -0.000001 0.000000 0.000001 
0.000000 -0.000001 0.835152 0.000004 -6.255801 2.667087 -2.580781 3.345991 10.067923 0.610720 -0.850220 16.922897 3.531705 2.283324 -2.460749 5.026532 8.017678 -28.914226 -0.614898 0.855668 17.007193 -3.914810 -3.670626 3.797491 0.229081 4.885170 -0.009506 -0.000000 -0.000000 -0.000000 -0.000000 -0.000000 -0.000000 -0.000000 -0.000000 -0.000000 0.047642 1.022544 -0.000431 -0.000000 -0.000006 -3.131942 0.306735 6.557289 -5.467927 -17.543320 -7.166509 -8.377452 -2.868781 -9.176574 -22.388879 -7.952219 -0.718397 -11.750240 -0.000002 -0.000000 -0.000003 -0.000000 -0.000000 -0.000001 -0.000001 -0.000002 0.000001 0.000003 -0.000000 -0.000001 -0.000000 -0.000001 0.000001 -0.000000 -0.000002 -0.000001 -0.000001 0.000001 -0.000003 0.000004 0.000002 -0.000005 -0.000004 0.000004 -0.000002 -0.000000 -0.000001 0.000004 0.000000 -0.000002 -0.000001 0.000001 -0.000001 0.000002 -0.000000 0.000000 -0.000000 0.000001 -0.000000 0.000000 0.000001 -0.000003 0.000003 0.000004 -0.000000 -0.000004 -0.000001 -0.000000 0.000001 0.000003 0.000002 -0.000001 0.000003 0.000002 -0.000001 0.307044 6.557287 5.360983 17.139544 -6.510019 5.437507 0.896741 -11.933598 8.332324 -0.049710 -1.995354 1.382897 0.000001 0.000001 0.000000 0.000002 0.000002 -0.000002 -0.000001 0.000001 -0.000002 -0.000002 -0.000001 0.000003 0.000002 0.000003 -0.000003 0.000000 -0.000001 0.000002 0.000000 0.000002 0.000000 -0.000002 -0.000001 0.000001 -0.000001 -0.000000 0.000001 -0.000002 0.000000 0.000001 0.000001 0.000002 -0.000001 -0.000002 0.000002 -0.000001 0.000004 0.000002 -0.000002 0.000000 -0.000001 -0.000001 0.000000 -0.000000 0.000001 -0.000003 -0.000002 0.000002 0.000002 0.000002 -0.000002 -0.000002 -0.000001 -0.000000 -0.000003 -0.000001 0.000002 
-0.000000 -0.000000 0.823578 -0.000067 -5.360893 2.665810 -2.724587 2.607922 7.501414 1.086355 -1.260445 27.057712 3.609375 2.198913 2.400322 4.797926 6.742996 -31.642866 -1.161897 1.321457 28.406608 -4.056544 -3.331429 -0.097978 0.195355 4.185969 -0.007125 0.000000 0.000000 -0.000000 0.000000 0.000000 -0.000000 0.000000 0.000000 -0.000000 0.040847 0.876687 -0.000431 -0.000000 -0.000005 -3.131942 0.262798 5.619396 -4.688372 -17.404066 -6.197476 -7.380201 -2.354459 -7.749009 -20.164648 -6.690425 -4.257896 -15.897038 -0.000002 -0.000002 -0.000004 0.000001 -0.000003 0.000003 -0.000000 0.000002 -0.000004 0.000003 0.000002 -0.000004 -0.000002 0.000000 -0.000001 0.000003 -0.000002 0.000002 0.000001 -0.000006 0.000002 -0.000001 0.000000 -0.000007 0.000001 -0.000001 -0.000000 0.000002 0.000003 -0.000000 -0.000000 0.000000 0.000000 0.000000 0.000000 -0.000003 -0.000003 0.000003 0.000000 0.000003 0.000002 -0.000005 0.000001 -0.000001 -0.000002 -0.000001 0.000003 -0.000004 -0.000002 0.000000 -0.000001 -0.000000 0.000000 0.000004 -0.000001 -0.000001 0.000000 0.262697 5.619403 4.590815 17.058609 -5.534513 4.447925 0.657816 -10.436334 6.137438 0.158814 -6.386620 4.283688 0.000002 0.000003 0.000001 0.000000 0.000002 -0.000000 0.000001 0.000001 -0.000001 -0.000000 -0.000004 0.000004 0.000002 0.000002 -0.000002 -0.000001 0.000001 0.000001 0.000000 -0.000001 -0.000000 -0.000001 -0.000003 0.000001 0.000003 0.000001 -0.000001 -0.000002 0.000000 -0.000000 0.000002 0.000002 -0.000001 0.000001 0.000002 -0.000000 0.000001 0.000004 -0.000000 0.000001 -0.000002 0.000000 0.000001 -0.000002 0.000001 -0.000001 -0.000003 -0.000001 0.000004 0.000006 -0.000002 0.000001 0.000002 -0.000002 -0.000003 -0.000000 0.000000 
0.000000 0.000000 0.818161 -0.000093 -4.235057 2.664716 -2.867814 1.598867 5.641847 1.437735 -1.483047 33.766410 3.666949 2.123211 10.119291 4.569690 5.475690 -30.663195 -1.475844 1.504531 34.364891 -4.069513 -3.014438 -6.915188 0.154186 3.306524 -0.004049 0.000000 -0.000000 0.000000 0.000000 -0.000000 0.000000 0.000000 -0.000000 0.000000 0.032285 0.692921 -0.000431 -0.000000 -0.000004 -3.131941 0.207271 4.439397 -3.708908 -17.253985 -4.973788 -6.129859 -1.785993 -5.915187 -17.376635 -6.130153 -6.294865 -17.544026 -0.000000 0.000001 -0.000001 -0.000003 0.000003 -0.000003 0.000002 0.000001 -0.000003 0.000001 0.000003 0.000002 0.000005 -0.000001 0.000001 -0.000003 0.000001 0.000005 0.000001 -0.000000 0.000003 -0.000001 0.000004 -0.000004 -0.000004 0.000000 0.000003 0.000001 -0.000001 0.000002 -0.000003 -0.000002 -0.000000 -0.000001 -0.000001 0.000003 -0.000004 0.000005 -0.000001 0.000001 0.000001 -0.000003 0.000001 -0.000001 0.000001 0.000003 0.000005 0.000002 -0.000003 -0.000002 0.000001 0.000002 -0.000001 -0.000001 0.000002 -0.000002 0.000001 0.207286 4.439408 3.621064 16.980883 -4.304141 3.205563 0.440247 -8.529656 3.381222 0.733415 -8.724938 5.478150 0.000003 0.000001 -0.000001 0.000001 -0.000002 0.000002 0.000000 0.000000 0.000001 -0.000003 -0.000001 0.000000 0.000002 -0.000000 -0.000001 0.000000 0.000001 0.000000 -0.000001 0.000001 -0.000000 -0.000002 0.000002 -0.000001 0.000003 0.000003 -0.000002 -0.000004 0.000000 -0.000000 -0.000001 0.000002 -0.000002 -0.000001 0.000001 0.000000 0.000004 0.000000 0.000001 0.000000 -0.000002 -0.000000 0.000002 -0.000000 0.000001 -0.000001 0.000000 -0.000003 0.000001 0.000000 0.000000 -0.000002 0.000001 0.000001 -0.000002 0.000004 -0.000001 
-0.000000 -0.000000 0.824760 -0.000094 -2.996008 2.663728 -3.225957 0.761033 -1.939476 1.977336 -1.725938 43.317241 3.747261 2.063303 20.871514 4.374985 4.349496 -26.560480 -1.439265 1.484795 33.761919 -3.998906 -2.834317 -10.301085 0.109022 2.338933 -0.002211 -0.000000 -0.000000 -0.000000 -0.000000 -0.000000 -0.000000 -0.000000 -0.000000 -0.000000 0.022849 0.490391 -0.000431 -0.000000 -0.000003 -3.131942 0.146590 3.140637 -2.632474 -17.119423 -3.622210 -4.758363 -1.263540 -3.855721 -14.320245 -5.702947 -5.220510 -14.826534 -0.000001 -0.000001 -0.000004 -0.000003 0.000001 -0.000002 0.000001 -0.000000 0.000000 0.000004 0.000000 -0.000002 -0.000001 -0.000002 0.000003 0.000002 -0.000001 -0.000001 -0.000000 -0.000001 0.000003 0.000002 -0.000001 -0.000003 -0.000001 0.000001 -0.000002 -0.000000 -0.000002 0.000000 -0.000004 0.000001 0.000001 0.000002 -0.000001 -0.000003 -0.000004 0.000004 0.000006 -0.000004 -0.000000 0.000000 -0.000000 0.000002 -0.000003 0.000007 -0.000001 -0.000001 -0.000003 0.000004 0.000005 0.000002 -0.000000 -0.000001 0.000004 -0.000002 0.000006 0.146498 3.140646 2.552678 16.926336 -2.947019 1.840702 0.308389 -6.409446 0.352183 1.549681 -7.146536 3.340220 -0.000001 -0.000003 0.000001 0.000002 0.000001 -0.000001 -0.000001 -0.000001 -0.000000 -0.000002 -0.000001 0.000002 -0.000001 0.000004 0.000001 -0.000002 0.000002 -0.000000 0.000002 0.000001 -0.000001 -0.000002 -0.000005 -0.000000 0.000002 0.000000 0.000000 -0.000002 0.000000 -0.000001 0.000004 -0.000001 -0.000000 -0.000003 -0.000003 0.000002 0.000003 0.000001 -0.000000 -0.000001 0.000001 -0.000001 0.000000 0.000000 -0.000000 -0.000003 -0.000001 -0.000002 0.000004 -0.000000 0.000000 -0.000002 0.000001 -0.000001 -0.000001 0.000003 -0.000001 
-0.000000 0.000000 0.840622 -0.000054 -1.502647 2.663121 -3.704024 0.018661 -16.420251 2.659113 -1.892863 54.655495 3.889291 2.090040 36.861933 4.152143 3.151813 -20.027207 -1.135640 1.296262 28.013478 -3.880532 -2.734694 -10.962591 0.054694 1.173014 -0.002530 -0.000000 0.000000 -0.000000 -0.000000 0.000000 -0.000000 -0.000000 0.000000 -0.000000 0.011464 0.246034 -0.000431 0.000000 -0.000001 -3.131941 0.073443 1.575216 -1.337143 -17.000430 -1.988152 -3.110260 -0.780025 -1.329031 -10.650603 -4.951990 -1.917592 -9.038820 -0.000002 0.000001 0.000001 -0.000003 0.000000 0.000001 -0.000002 -0.000001 0.000001 -0.000000 0.000005 0.000001 -0.000001 -0.000002 0.000004 -0.000003 -0.000000 0.000002 -0.000001 -0.000000 0.000000 -0.000001 0.000004 -0.000004 -0.000002 0.000002 -0.000000 -0.000000 0.000003 -0.000001 -0.000002 0.000001 0.000002 -0.000001 -0.000001 -0.000003 -0.000004 -0.000000 -0.000000 -0.000002 0.000001 -0.000002 -0.000001 0.000001 0.000001 -0.000002 0.000008 -0.000000 0.000001 0.000001 0.000001 0.000001 0.000001 0.000000 0.000002 0.000001 -0.000000 0.073445 1.575218 1.263357 16.903607 -1.308795 0.197580 0.299807 -3.837030 -3.296350 2.915726 -2.912936 -1.388786 0.000001 -0.000000 -0.000001 0.000002 0.000000 -0.000000 0.000000 0.000000 0.000000 -0.000002 -0.000003 0.000003 0.000000 0.000001 -0.000001 -0.000001 0.000000 -0.000000 0.000003 -0.000000 0.000000 -0.000000 -0.000001 -0.000001 0.000001 -0.000000 -0.000000 -0.000002 0.000000 0.000000 0.000001 -0.000000 -0.000000 0.000000 0.000001 0.000002 0.000002 0.000002 0.000000 0.000000 -0.000000 0.000000 0.000003 -0.000000 0.000000 -0.000000 -0.000004 0.000001 0.000001 0.000005 -0.000002 -0.000001 -0.000000 -0.000000 -0.000001 -0.000000 0.000000 
